<mxfile host="app.diagrams.net" modified="2024-04-14T07:32:38.616Z" agent="Mozilla/5.0 (Windows NT 10.0; Win64; x64) AppleWebKit/537.36 (KHTML, like Gecko) Chrome/123.0.0.0 Safari/537.36" version="24.2.5" etag="mc5qlSvFnJZCTaEL2bwR" type="github">
  <diagram name="Page-1" id="vcIZjqGitb1x9zpNsJi2">
    <mxGraphModel>
      <root>
        <mxCell id="0" />
        <mxCell id="1" parent="0" />
      </root>
    </mxGraphModel>
  </diagram>
</mxfile>
